<svg xmlns="http://www.w3.org/2000/svg" xml:space="preserve" width="36" height="144" viewBox="0 0 36 144"><g transform="translate(0 .313)"><circle cx="18" cy="90" r="16" fill="#00a2ff"/><g fill="none" stroke="#fff" stroke-linecap="round" stroke-linejoin="round" stroke-miterlimit="10" stroke-width="2"><circle cx="18" cy="84" r="5"/><path d="M18 92s5 0 6 1 2 6 2 6-3.1 2-8 2-8-2-8-2 1-5 2-6 6-1 6-1"/></g></g><g transform="translate(0 .313)"><circle cx="18" cy="54" r="16" fill="#f68802"/><path fill="none" stroke="#fff" stroke-linecap="round" stroke-linejoin="round" stroke-miterlimit="10" stroke-width="2" d="M8 47v5l2 2h5l3 3v5l2 2h5l-3-3v-3h3l3 3v-5l-2-2h-5l-3-3v-5l-2-2h-5l3 3v3h-3z"/></g><g transform="translate(0 .313)"><circle cx="18" cy="18" r="16" fill="#02b757"/><path fill="none" stroke="#fff" stroke-linecap="round" stroke-linejoin="round" stroke-miterlimit="10" stroke-width="2" d="M16 23h4l5 2h4V14l-4.8-3H12l-5 3v11h4zM11 18h4M13 16v4"/><path fill="#fff" d="M22 15c-.8 0-1.5.7-1.5 1.5S21.2 18 22 18s1.5-.7 1.5-1.5S22.8 15 22 15M25 18c-.8 0-1.5.7-1.5 1.5S24.2 21 25 21s1.5-.7 1.5-1.5S25.8 18 25 18"/></g><g transform="translate(0 36.313)"><circle cx="18" cy="90" r="16" fill="#00a2ff" style="fill:#000;fill-opacity:1"/><circle cx="18" cy="126.313" r="14.667" fill="#232527" stroke="#bdbebe" stroke-width="2.667" transform="translate(0 -36.313)"/></g></svg>